<?xml version="1.0" encoding="utf-8"?>
<!-- Generator: Adobe Illustrator 27.9.0, SVG Export Plug-In . SVG Version: 6.00 Build 0)  -->
<svg version="1.1" id="Layer_1" xmlns="http://www.w3.org/2000/svg" xmlns:xlink="http://www.w3.org/1999/xlink" x="0px" y="0px"
	 viewBox="0 0 1299.2 153.7" style="enable-background:new 0 0 1299.2 153.7;" xml:space="preserve">
<style type="text/css">
	.st0{fill:#0D0D3A;}
</style>
<g>
	<path class="st0" d="M497.7,10.8c25.1,25.1,50.1,50.1,75.2,75.2c25.1-25.1,50-50.1,75.3-75.4c0,0.8,0.1,1.2,0.1,1.6
		c0,18.2,0,36.4,0,54.6c0,0.7-0.3,1.5-0.8,1.9c-24.5,24.6-49.1,49.1-73.6,73.6c-0.3,0.3-0.5,0.5-0.7,0.7C548,118,522.9,93,497.8,68
		c-25.1,25.1-50.1,50.1-75.4,75.4c0-0.8-0.1-1.1-0.1-1.5c0-18.2,0-36.3,0-54.5c0-0.8,0.2-1.5,0.8-2.1c24.6-24.5,49.1-49.1,73.6-73.6
		C497,11.4,497.3,11.1,497.7,10.8z"/>
	<path class="st0" d="M821.5,76.9c0.4-21.5,7.7-40.1,23.1-55.3C856.4,10,870.5,3,886.9,0.9C908.6-2,928.2,3.3,945.3,17
		C959.9,28.7,969,44,972.4,62.5c3.9,21.6-0.3,41.6-13.1,59.5c-12.4,17.3-29.3,27.7-50.4,30.7c-24.1,3.5-45.4-3-63.3-19.6
		c-11.9-11-19.3-24.8-22.5-40.7C822,87.3,821.5,82.1,821.5,76.9z M943.4,75.5c-0.2-1.6-0.3-4.9-0.9-8c-2.1-11.7-7.4-21.6-16.7-29.1
		c-9.6-7.8-20.7-10.7-33-9.5c-13.1,1.3-23.8,7.2-31.5,17.8c-9.5,13.1-11.7,27.8-8,43.3c4.9,20.9,21.8,34.9,42.7,35.4
		c14.4,0.4,26.6-4.8,35.9-15.9C939.9,100.2,943.2,89.2,943.4,75.5z"/>
	<path class="st0" d="M267.3,151.7c-0.6,0-1,0-1.4,0c-9.7,0-19.4,0-29.1,0c-1,0-1.3-0.3-1.6-1.2c-3.8-11.2-7.6-22.4-11.4-33.6
		c-0.3-0.8-0.6-1.1-1.5-1.1c-17.9,0-35.8,0-53.7,0c-1,0-1.3,0.4-1.5,1.2c-3.7,11.1-7.4,22.2-11,33.3c-0.3,1-0.8,1.4-1.9,1.4
		c-9.7-0.1-19.4,0-29.1,0c-0.5,0-0.9,0-1.6,0c0.2-0.5,0.3-1,0.4-1.4c18.3-48.9,36.5-97.9,54.7-146.8c0.4-1,0.8-1.4,1.9-1.4
		c10,0.1,20,0,30,0c0.9,0,1.4,0.3,1.7,1.2c18.2,48.9,36.3,97.9,54.5,146.8C266.9,150.5,267.1,151,267.3,151.7z M214.3,89.6
		c-6.3-18.6-12.6-37.1-18.9-55.7c-0.1,0-0.2,0-0.3,0c-6.2,18.5-12.4,37-18.7,55.7C189.1,89.6,201.6,89.6,214.3,89.6z"/>
	<path class="st0" d="M1090.5,45.7c-10.1,0-20.1,0-30.1,0c-0.2-1.4-0.3-2.9-0.6-4.3c-1.3-6.1-4.8-10.5-10.7-12.7
		c-7.6-2.9-15.1-2.5-22.1,1.8c-6.2,3.7-9.1,10.8-7.3,17.2c0.8,3,2.7,5.2,5.1,7.1c3.2,2.4,6.9,3.9,10.7,5c8.7,2.6,17.5,4.9,26,7.8
		c8.2,2.8,15.8,6.9,22.1,13c6.5,6.3,10.2,13.9,11.1,22.9c0.8,7.9-0.1,15.6-3.3,22.8c-4.1,9.4-11.1,16.1-20.2,20.7
		c-9.6,4.9-19.9,6.9-30.7,6.8c-9.5-0.1-18.7-1.8-27.3-6c-13.1-6.4-21.8-16.5-24.9-30.9c-0.6-2.9-0.8-5.9-1.2-9c10.3,0,20.3,0,30.3,0
		c0.2,1.1,0.3,2.2,0.5,3.2c1.5,6.4,5.6,10.9,11.4,13.5c9.5,4.3,19.1,4.3,28-1.4c6.9-4.3,9-13.6,5.2-20.4c-2-3.5-5.2-5.8-8.7-7.6
		c-4.8-2.5-10-3.7-15.1-5.2c-6.9-2-13.8-3.9-20.6-6.3c-6.8-2.3-12.9-6-18.1-11c-7.1-6.9-10.8-15.3-11.4-25.1
		c-0.7-11.1,2.3-21.1,9.6-29.7c6.9-8.2,15.9-13.2,26.2-15.7c13.6-3.3,27-2.9,39.8,2.9c15.7,7.1,24.2,19.4,25.7,36.6
		C1090.4,42.9,1090.5,44.2,1090.5,45.7z"/>
	<path class="st0" d="M312.2,151.6c-10.2,0-20.2,0-30.2,0c0-49.8,0-99.6,0-149.5c0.5,0,0.9,0,1.4,0c20.4,0,40.8-0.1,61.2,0
		c11,0.1,21.2,3,30,9.9c8.1,6.4,13,14.9,15.5,24.9c2.9,11.9,2.4,23.7-2.4,35.1c-6,14.3-16.9,22.9-32,26c-4.1,0.8-8.4,1.2-12.6,1.3
		c-10.2,0.2-20.4,0.1-30.8,0.1C312.2,116.8,312.2,134.1,312.2,151.6z M312.2,72.8c0.3,0,0.6,0.1,0.8,0.1c9.8,0,19.6,0.1,29.4,0
		c8.5-0.1,14.8-4.8,17.5-12.8c2.2-6.4,2.1-13-0.3-19.3c-2.9-7.6-8.6-11.7-16.7-11.9c-10-0.2-20,0-30,0c-0.2,0-0.4,0-0.7,0.1
		C312.2,43.5,312.2,58.1,312.2,72.8z"/>
	<path class="st0" d="M725.6,99.4c0,17.5,0,34.8,0,52.2c-10.1,0-20.1,0-30.1,0c0-49.8,0-99.5,0-149.4c0.4,0,0.9-0.1,1.3-0.1
		c20.5,0,40.9-0.1,61.4,0c11.2,0.1,21.5,3,30.3,10.2c8.2,6.7,13.1,15.4,15.4,25.6c2.7,11.9,2,23.5-2.9,34.7
		c-5.9,13.5-16.3,21.7-30.6,25.2c-4.5,1.1-9,1.5-13.6,1.5c-9.8,0-19.6,0-29.4,0C726.8,99.4,726.3,99.4,725.6,99.4z M725.7,72.8
		c0.3,0,0.6,0.1,0.8,0.1c9.8,0,19.6,0.1,29.4,0c8.2-0.1,14.5-4.6,17.3-12.2c2.3-6.4,2.3-12.9,0.1-19.3c-2.8-7.8-8.7-12.3-16.8-12.4
		c-10-0.2-20.1-0.1-30.1,0c-0.2,0-0.4,0.1-0.7,0.1C725.7,43.6,725.7,58.2,725.7,72.8z"/>
	<path class="st0" d="M0.1,151.6c0-0.5-0.1-0.9-0.1-1.3c0-6.9,0-13.8,0-20.7c0-0.7,0.2-1.5,0.6-2.1c22.6-32.3,45.2-64.6,67.8-96.9
		c0.4-0.5,0.7-1,1.2-1.7c-22.3,0-44.5,0-66.7,0c0-8.9,0-17.7,0-26.7c35.3,0,70.6,0,106.1,0c0,0.4,0,0.9,0,1.3c0,6.9,0,13.7,0,20.6
		c0,0.7-0.3,1.6-0.7,2.2c-22.9,32.4-45.8,64.8-68.8,97.2c-0.3,0.4-0.5,0.8-1,1.4c23.6,0,46.9,0,70.4,0c0,9,0,17.8,0,26.7
		C72.7,151.6,36.5,151.6,0.1,151.6z"/>
	<path class="st0" d="M1218.5,28.8c-13.7,0-27.4,0-41.2,0c0,41,0,81.8,0,122.7c-10.1,0-20.1,0-30.2,0c0-40.9,0-81.8,0-122.7
		c-13.8,0-27.4,0-41.2,0c0-8.9,0-17.7,0-26.6c37.5,0,75,0,112.5,0C1218.5,11,1218.5,19.8,1218.5,28.8z"/>
</g>
<g>
	<path class="st0" d="M1269.6,1.2c16.3,0,29.6,13.3,29.6,29.6c0,16.3-13.3,29.6-29.6,29.6c-16.3,0-29.6-13.3-29.6-29.6
		C1240,14.4,1253.3,1.2,1269.6,1.2z M1246,30.8c0,13,10.6,23.6,23.6,23.6c13,0,23.6-10.6,23.6-23.6c0-13-10.6-23.6-23.6-23.6
		C1256.6,7.2,1246,17.8,1246,30.8z"/>
	<path class="st0" d="M1274.7,31.1c0.3,0.1,0.5,0.2,0.8,0.3c1.3,0.6,2.3,1.5,3.1,2.7c0.8,1.2,1.4,2.5,2.1,3.8c1.2,2.5,2.5,5,3.7,7.4
		c0,0.1,0.1,0.2,0.1,0.3c-0.1,0-0.2,0-0.2,0c-2.7,0-5.4,0-8,0c-0.2,0-0.3-0.1-0.3-0.2c-1.3-2.6-2.6-5.3-3.9-7.9
		c-0.3-0.6-0.7-1.2-1.1-1.8c-0.7-1.1-1.8-1.7-3.1-1.8c-1.1-0.1-2.2-0.1-3.3-0.1c0,3.9,0,7.8,0,11.7c-2.7,0-5.3,0-8,0
		c0-10.3,0-20.6,0-30.9c0.1,0,0.1,0,0.2,0c4.2,0,8.4,0,12.6,0c2,0,4,0.2,6,0.9c1.3,0.4,2.4,1.1,3.3,2c1,1.1,1.5,2.4,1.7,3.8
		c0.2,1.6,0.2,3.1-0.2,4.7c-0.6,2.1-1.9,3.5-3.8,4.4C1275.8,30.7,1275.3,30.9,1274.7,31.1z M1264.6,28.4c0.1,0,0.1,0,0.2,0
		c1.2,0,2.4,0,3.6,0c0.6,0,1.2-0.1,1.8-0.2c1.2-0.3,2-1,2.3-2.2c0.3-1,0.3-2,0-3c-0.3-1.1-1-1.9-2.1-2.2c-0.6-0.2-1.3-0.3-2-0.3
		c-1.2,0-2.4,0-3.6,0c-0.1,0-0.1,0-0.2,0C1264.6,23.1,1264.6,25.7,1264.6,28.4z"/>
</g>
</svg>
